<svg xmlns="http://www.w3.org/2000/svg" class="position-relative" style="top: 5px;" width="19" fill="none" viewBox="0 0 32 39">
<path fill="#f1f1f1" d="M31.562 9.63l.438.253-3.675 6.387c-.106-.059-.202-.111-.296-.167-.169-.097-.169-.097-.265.067-.427.739-.85 1.477-1.274 2.215l-5.77 10.018c-.976 1.694-1.95 3.384-2.922 5.078-.053.09-.111.146-.225.158-.585.061-1.166.155-1.753.196-.52.038-1.043.047-1.563.02-1.794-.087-3.52-.477-5.172-1.186-.318-.138-.628-.29-.94-.44-.041-.02-.08-.043-.132-.073l14.93-25.933c2.901 1.89 4.923 4.454 6.118 7.741.841-1.456 1.668-2.886 2.5-4.333zM21.199 8.122c-.047.085-.091.161-.135.237-2.016 3.498-4.032 7-6.045 10.498-2.232 3.874-4.461 7.75-6.693 11.623-.252.434-.497.87-.754 1.301-.059.1-.044.147.055.197.114.055.22.125.345.199-1.227 2.133-2.448 4.251-3.675 6.387-.152-.088-.293-.167-.439-.252l2.437-4.24c-.143-.096-.277-.187-.409-.278-2.667-1.834-4.549-4.283-5.671-7.322-.032-.088-.03-.155.018-.24 2.232-3.873 4.461-7.75 6.693-11.623 1.499-2.602 2.998-5.204 4.488-7.809.105-.184.266-.167.415-.19.715-.117 1.437-.182 2.165-.193 2.498-.047 4.855.512 7.085 1.637.035.018.07.041.12.068zM.846 23.944C.683 23.346.507 22.75.361 22.15c-.17-.704-.277-1.419-.312-2.142-.027-.519-.062-1.038-.044-1.553.076-2.136.564-4.172 1.493-6.1.786-1.632 1.832-3.074 3.146-4.32 1.826-1.73 3.953-2.938 6.381-3.6.398-.108.804-.19 1.21-.278.105-.024.146-.094.19-.173L14.18.932l.482-.835C14.68.067 14.7.04 14.73 0l.432.249c-1.224 2.13-2.442 4.251-3.67 6.381-.119-.064-.236-.12-.341-.19-.094-.059-.14-.053-.199.05-1.145 1.998-2.296 3.996-3.444 5.992-1.786 3.088-3.559 6.167-5.332 9.247-.404.697-.804 1.394-1.204 2.092l-.073.117c-.02.003-.038.003-.053.006zM28.328 16.317c.669 1.849.96 3.738.876 5.678-.117 2.69-.885 5.186-2.332 7.46-1.434 2.253-3.345 3.993-5.709 5.236-1.332.697-2.737 1.18-4.248 1.453 3.81-6.622 7.605-13.214 11.413-19.827z"></path>
</svg>